<?xml version="1.0" standalone="no"?>
<!DOCTYPE svg PUBLIC "-//W3C//DTD SVG 20010904//EN"
 "http://www.w3.org/TR/2001/REC-SVG-20010904/DTD/svg10.dtd">
<svg version="1.0" xmlns="http://www.w3.org/2000/svg"
 width="1200.000000pt" height="1200.000000pt" viewBox="0 0 724.000000 724.000000"
 preserveAspectRatio="xMidYMid meet">

<g transform="translate(0.000000,724.000000) scale(0.100000,-0.100000)"
fill="#000000" stroke="none">
<path d="M0 3620 l0 -3620 3620 0 3620 0 0 3620 0 3620 -3620 0 -3620 0 0
-3620z m4920 1142 c37 -30 38 -96 2 -173 -39 -81 -50 -167 -28 -228 9 -24 16
-72 16 -106 0 -34 7 -79 15 -98 8 -20 15 -52 15 -72 0 -19 4 -35 9 -35 5 0 23
17 40 39 17 21 44 44 61 51 30 12 104 9 143 -5 13 -6 17 -2 17 19 0 57 71 93
123 64 12 -7 42 -14 67 -14 75 -3 139 -20 165 -44 23 -22 25 -22 31 -4 21 66
80 187 98 199 32 23 80 18 115 -11 35 -29 40 -63 17 -119 -10 -24 -12 -44 -6
-65 6 -23 3 -48 -12 -97 -24 -76 -18 -96 30 -100 27 -2 34 2 47 31 9 19 15 47
14 63 -1 15 -1 38 -1 51 4 58 92 85 129 39 23 -30 57 -106 78 -177 9 -30 25
-68 36 -83 14 -19 23 -54 29 -105 10 -93 16 -112 41 -112 31 0 134 57 152 83
17 26 96 57 147 57 42 0 80 -39 80 -81 0 -26 -11 -43 -57 -88 -32 -31 -71 -64
-88 -74 -67 -39 -100 -64 -144 -109 -25 -26 -68 -59 -95 -72 -32 -16 -59 -40
-81 -73 -21 -31 -50 -58 -79 -74 -25 -13 -49 -33 -52 -44 -4 -11 -19 -33 -34
-50 -15 -16 -37 -48 -48 -70 -20 -37 -140 -155 -186 -182 -12 -7 -33 -12 -47
-13 -16 0 -51 -19 -89 -50 -50 -40 -70 -50 -99 -50 -81 0 -108 80 -52 157 29
40 86 90 129 112 13 7 54 44 93 82 49 49 69 76 69 94 0 33 21 73 54 104 14 14
26 30 26 37 0 16 57 64 76 64 8 0 19 12 25 28 6 15 17 39 25 53 11 22 11 29
-1 45 -8 10 -15 38 -15 62 0 67 -23 102 -68 102 -12 0 -33 7 -46 15 -21 14
-24 14 -36 0 -7 -9 -10 -29 -7 -48 3 -22 -2 -49 -14 -76 -12 -27 -19 -66 -19
-102 0 -67 -30 -164 -57 -185 -34 -25 -81 -17 -119 21 -19 19 -43 35 -53 35
-35 0 -80 78 -98 172 l-5 27 -37 -40 c-27 -27 -46 -39 -66 -39 -33 0 -75 35
-75 63 0 14 -4 17 -17 12 -98 -39 -159 -44 -197 -14 l-26 21 10 -27 c6 -15 8
-48 5 -74 -5 -35 -1 -55 14 -86 38 -73 19 -167 -37 -182 -79 -20 -127 2 -138
66 -4 20 -12 43 -19 51 -31 36 -66 135 -65 185 1 36 -5 63 -24 99 -14 27 -26
61 -26 75 0 20 -3 22 -12 13 -7 -7 -15 -44 -19 -82 -6 -73 -16 -89 -67 -110
-40 -17 -122 46 -122 93 0 8 -13 31 -29 51 -29 36 -35 59 -45 162 -2 23 -9 52
-16 64 -20 37 -28 7 -36 -125 -7 -110 -9 -120 -35 -150 -27 -30 -28 -36 -22
-99 4 -48 2 -77 -9 -104 -9 -20 -22 -57 -30 -81 -19 -59 -54 -86 -102 -77 -49
9 -70 43 -68 109 1 29 -3 73 -10 98 -8 34 -8 54 0 78 9 24 8 46 -5 95 -19 78
-13 118 29 180 l31 47 -7 113 c-7 106 -6 117 17 172 14 33 30 91 36 129 13 76
41 148 62 161 7 4 29 10 47 13 31 5 36 12 54 59 27 71 85 132 126 132 18 0 42
-10 58 -23 23 -20 27 -32 27 -70 -1 -25 -11 -71 -22 -102 -19 -51 -20 -58 -6
-85 8 -16 15 -46 15 -67 1 -113 58 -62 78 70 10 63 47 147 72 162 6 3 10 22
10 41 0 40 11 64 52 114 15 19 28 40 28 46 0 21 60 64 90 64 15 0 38 -8 50
-18z m-3628 -213 c31 -15 74 -31 96 -35 23 -3 49 -14 59 -24 10 -9 31 -20 47
-24 48 -12 86 -58 86 -105 0 -22 9 -55 21 -75 18 -31 19 -45 13 -123 -3 -48
-13 -101 -21 -118 -8 -16 -17 -43 -19 -60 -3 -16 -11 -43 -19 -60 -8 -16 -21
-47 -29 -68 -10 -23 -28 -45 -51 -58 -20 -12 -34 -26 -33 -31 2 -5 33 -26 68
-46 46 -27 74 -51 95 -84 17 -26 38 -50 47 -53 9 -3 27 -26 39 -51 27 -57 50
-46 27 13 -9 22 -16 76 -17 126 -1 61 -6 96 -17 113 -12 17 -14 36 -10 71 4
27 6 58 6 71 -4 140 6 216 31 238 19 17 19 18 -13 51 -28 29 -33 41 -32 81 2
48 11 139 20 179 5 25 69 63 104 63 24 0 80 -27 80 -39 0 -4 14 -29 32 -56
l32 -48 -13 -91 c-16 -111 -16 -120 1 -222 11 -66 11 -91 1 -130 -12 -48 -8
-78 8 -53 5 8 9 28 9 44 0 42 33 91 75 113 20 10 42 29 48 42 21 41 73 64 142
63 97 -2 178 -9 201 -17 33 -12 48 45 41 151 -9 126 1 143 103 178 63 21 78
19 112 -16 l31 -30 -7 -110 c-5 -72 -3 -122 4 -144 11 -32 12 -33 38 -19 15 8
32 14 39 14 6 0 18 6 25 13 33 31 146 116 175 131 68 35 133 4 133 -63 0 -31
-9 -48 -55 -101 -30 -35 -55 -67 -55 -72 0 -4 -24 -24 -54 -43 -41 -26 -55
-41 -60 -65 -9 -48 -41 -85 -91 -109 l-44 -21 28 -43 c35 -51 56 -70 97 -86
35 -14 64 -57 64 -97 0 -15 11 -44 25 -64 16 -23 28 -59 34 -105 6 -39 20
-101 31 -139 30 -95 28 -138 -6 -187 -15 -22 -35 -44 -45 -50 -27 -14 -72 -10
-96 9 -21 16 -63 119 -63 153 0 9 -9 24 -20 34 -11 10 -27 40 -35 67 -8 28
-27 61 -44 77 -19 18 -32 42 -36 67 -15 98 -39 123 -50 51 -10 -68 -71 -209
-100 -234 -35 -31 -58 -29 -98 7 -55 48 -62 76 -39 158 l20 71 -31 -20 c-18
-10 -48 -19 -68 -19 -20 0 -42 -7 -49 -15 -7 -8 -22 -15 -34 -15 -30 0 -42
-11 -50 -44 -4 -16 -20 -41 -36 -57 -49 -49 -114 -34 -140 33 -51 136 -82 154
-85 48 -2 -58 -5 -66 -34 -92 -36 -32 -35 -52 3 -95 27 -31 34 -55 35 -121 1
-76 -27 -121 -77 -122 -36 0 -60 17 -81 58 -10 20 -29 48 -40 61 -12 13 -26
41 -32 61 -8 25 -20 40 -40 49 -16 7 -36 25 -44 41 -8 15 -30 37 -50 49 -19
11 -40 32 -47 46 -7 16 -19 25 -35 25 -26 0 -59 29 -73 65 -5 14 -17 26 -27
26 -10 1 -22 2 -28 4 -5 1 -18 3 -27 3 -10 1 -33 16 -51 32 -19 17 -37 30 -41
30 -3 0 -3 -18 0 -39 3 -21 1 -55 -6 -75 -10 -31 -9 -38 12 -66 17 -23 23 -45
23 -83 1 -29 4 -64 9 -79 6 -20 2 -39 -13 -71 -12 -24 -21 -59 -21 -78 0 -48
-30 -79 -76 -79 -47 0 -89 41 -99 97 -3 23 -13 47 -21 54 -8 6 -14 29 -14 51
0 25 -14 71 -36 120 -28 61 -35 90 -33 126 2 31 -4 60 -16 84 -16 33 -17 42
-5 77 11 36 10 47 -14 122 -15 46 -31 88 -37 95 -9 11 -20 97 -23 180 -1 28
-10 52 -31 80 -26 34 -30 48 -31 104 0 49 -6 73 -23 100 -30 48 -24 115 14
147 14 13 34 23 44 23 10 0 26 9 36 20 23 25 79 43 118 37 25 -3 41 3 76 30
25 18 56 36 70 39 14 3 31 7 36 9 20 7 71 -7 127 -36z m2595 -411 c29 -33 34
-55 23 -99 -8 -29 -8 -49 1 -72 9 -26 8 -39 -5 -71 -20 -49 -21 -165 -1 -213
17 -41 19 -96 5 -124 -26 -47 -101 -59 -142 -22 -10 8 -24 13 -32 10 -9 -4
-37 0 -63 8 -27 8 -59 15 -73 15 -15 0 -31 5 -37 11 -15 15 -57 1 -84 -27 -38
-40 -120 -29 -138 19 -9 22 -9 21 -22 -6 -13 -30 -55 -57 -86 -57 -34 0 -61
30 -77 84 -21 71 -20 94 4 139 14 25 20 56 20 97 0 65 35 162 63 173 9 3 23
21 30 39 31 74 100 95 144 44 12 -15 23 -36 23 -47 0 -15 7 -19 38 -19 26 0
46 -7 62 -22 16 -15 25 -18 28 -10 13 40 70 61 110 41 15 -7 30 -15 35 -17 4
-2 7 6 7 17 0 31 25 86 49 110 29 29 91 29 118 -1z"/>
<path d="M4812 4719 c-9 -17 -32 -50 -49 -72 -24 -30 -33 -53 -33 -79 0 -27
-10 -52 -33 -85 -41 -58 -44 -66 -57 -151 -8 -50 -21 -83 -52 -130 -28 -43
-44 -59 -49 -50 -3 7 -12 51 -18 97 -6 47 -18 95 -26 107 -13 21 -12 29 10 89
31 82 32 118 3 145 -27 25 -64 20 -91 -13 -27 -33 -57 -94 -57 -115 0 -26 -35
-56 -59 -49 -47 12 -84 -45 -96 -148 -4 -33 -19 -89 -32 -124 -20 -50 -25 -79
-23 -125 8 -157 7 -170 -25 -217 -33 -48 -32 -44 -22 -264 3 -55 5 -126 5
-158 1 -73 21 -107 62 -107 37 0 57 20 71 73 6 23 16 55 22 70 5 16 9 50 8 75
-6 94 -4 101 28 137 28 32 31 42 32 103 0 69 13 192 24 249 8 38 35 34 35 -6
0 -14 9 -45 20 -69 11 -24 23 -79 26 -123 6 -71 10 -83 35 -107 16 -15 29 -36
29 -47 0 -32 37 -84 65 -91 32 -8 75 19 76 49 1 12 1 38 0 58 -2 22 6 49 18
70 15 24 21 51 21 90 0 30 6 63 13 73 12 16 15 12 25 -35 6 -30 11 -80 11
-112 0 -44 6 -73 25 -111 19 -39 26 -69 26 -113 0 -42 5 -64 15 -73 8 -7 15
-22 15 -34 0 -12 11 -33 25 -48 15 -16 25 -39 25 -57 0 -16 7 -37 16 -45 20
-20 73 -20 102 0 29 20 30 98 2 154 -15 30 -18 49 -13 85 5 38 2 51 -16 76
-13 17 -20 37 -17 45 8 21 54 10 86 -21 31 -30 35 -30 108 -9 35 11 67 28 84
46 l28 30 0 -42 c0 -56 14 -80 48 -80 44 0 69 24 76 75 4 25 10 45 14 45 21
-1 41 -49 72 -168 11 -45 47 -82 79 -82 18 0 31 -9 43 -30 22 -38 45 -47 76
-29 33 19 53 79 57 170 1 51 8 84 20 103 12 18 16 37 12 61 -3 19 0 48 6 65
13 35 43 40 82 14 15 -10 37 -14 56 -12 22 4 32 0 36 -11 2 -9 9 -24 14 -33 5
-10 9 -38 9 -62 0 -28 6 -51 16 -61 10 -10 14 -24 10 -38 -31 -121 -28 -115
-74 -133 -28 -10 -47 -25 -55 -43 -6 -14 -29 -45 -50 -69 -31 -35 -37 -48 -32
-71 5 -24 -2 -35 -60 -89 -36 -34 -65 -66 -65 -72 0 -5 -19 -19 -42 -31 -58
-30 -146 -115 -153 -149 -8 -36 9 -68 39 -76 29 -7 57 7 115 58 24 21 52 38
63 38 58 0 205 118 248 200 10 19 28 46 40 60 12 14 26 36 31 50 6 15 28 35
57 50 31 16 58 42 80 75 26 38 47 56 93 78 41 19 68 41 85 67 14 21 38 43 54
50 16 7 37 21 47 32 10 11 36 29 58 40 48 24 92 64 111 100 18 34 2 76 -32 84
-34 9 -113 -23 -157 -63 -43 -39 -102 -68 -159 -78 l-36 -7 -16 55 c-9 30 -16
76 -16 102 0 30 -7 56 -19 74 -10 14 -29 60 -41 101 -27 88 -44 126 -73 158
-44 48 -83 17 -91 -73 -8 -91 -17 -146 -25 -143 -28 15 -60 28 -81 32 -46 11
-50 18 -41 71 5 28 15 65 22 83 11 25 11 39 2 63 -10 26 -9 37 3 61 32 62 17
110 -37 123 -44 11 -74 -27 -119 -145 -22 -58 -40 -118 -40 -133 0 -35 -24
-32 -28 4 -9 73 -33 92 -130 104 -42 6 -57 4 -71 -9 -17 -16 -19 -15 -35 9
-11 17 -26 25 -44 25 -37 0 -52 -17 -53 -59 0 -20 -4 -44 -8 -54 -6 -17 -8
-17 -25 2 -24 26 -88 44 -127 36 -16 -4 -44 -24 -64 -47 -40 -47 -95 -84 -96
-65 -4 74 -10 120 -19 137 -6 11 -12 55 -14 98 -2 42 -9 90 -15 106 -24 61
-10 185 29 248 22 37 27 117 8 136 -7 7 -27 12 -45 12 -28 0 -37 -6 -51 -31z
m34 -96 c-45 -85 -58 -206 -31 -283 8 -23 15 -77 15 -119 1 -51 5 -82 15 -95
10 -13 15 -43 15 -82 0 -35 4 -65 9 -68 16 -10 6 -188 -14 -228 -18 -36 -18
-37 4 -74 17 -29 21 -47 17 -76 -5 -30 -2 -41 15 -57 18 -17 20 -27 15 -64 -6
-37 -2 -54 21 -101 24 -49 25 -58 13 -66 -11 -7 -17 -3 -22 17 -4 15 -19 37
-33 50 -17 16 -25 34 -25 57 0 22 -6 36 -16 40 -13 5 -14 16 -9 60 7 50 5 58
-21 91 -25 33 -29 48 -35 141 -3 58 -9 107 -12 110 -3 3 3 36 14 72 24 86 24
107 -3 134 -14 14 -25 40 -28 68 -12 107 -60 13 -60 -119 0 -67 -3 -76 -30
-108 -22 -25 -30 -44 -31 -76 -2 -71 -5 -84 -28 -120 -18 -30 -21 -44 -15 -86
4 -31 3 -51 -3 -51 -14 0 -33 46 -33 81 0 21 -6 32 -24 40 -21 10 -25 20 -31
83 -3 39 -15 89 -24 112 -10 22 -21 61 -25 87 -5 29 -12 47 -21 47 -7 0 -18
14 -24 30 -5 17 -15 30 -20 30 -7 0 -11 26 -11 64 0 48 -4 65 -15 70 -38 14
-87 -133 -66 -197 10 -28 9 -58 -3 -147 -9 -61 -16 -135 -16 -164 0 -37 -5
-58 -16 -67 -8 -7 -24 -30 -35 -52 -18 -34 -19 -44 -8 -93 10 -46 10 -59 -4
-86 -8 -18 -20 -49 -25 -68 -9 -33 -10 -31 -11 28 -1 35 -5 71 -11 81 -6 12
-5 32 2 57 8 31 7 53 -8 111 l-18 72 39 57 38 58 -6 122 c-6 110 -5 125 14
165 12 24 28 83 37 131 11 60 20 87 28 84 6 -2 17 1 23 7 8 8 11 6 11 -7 0
-29 34 -14 45 21 6 17 18 40 28 51 9 10 17 30 17 43 0 28 51 110 58 91 2 -6
-8 -45 -23 -87 l-26 -76 20 -37 c11 -20 22 -59 25 -87 7 -75 17 -129 26 -140
5 -5 11 -55 14 -110 10 -161 21 -194 52 -163 9 9 20 63 29 148 13 113 19 140
43 178 49 80 60 106 70 175 8 53 19 80 48 120 28 38 38 63 39 93 1 27 9 48 23
62 11 11 29 36 38 54 10 18 19 28 21 21 2 -6 -7 -33 -21 -60z m890 -392 c-19
-36 -20 -55 -4 -81 9 -14 9 -24 1 -42 -7 -13 -15 -43 -19 -68 -3 -25 -13 -58
-21 -73 -21 -41 -9 -67 32 -67 20 0 35 -6 39 -15 3 -10 14 -13 33 -9 17 3 42
-2 64 -14 36 -18 36 -18 12 -61 -1 -2 -14 4 -27 13 -14 9 -43 16 -64 16 -21 0
-43 5 -49 11 -31 31 -56 -38 -54 -151 0 -19 -6 -52 -14 -73 -8 -20 -15 -63
-16 -95 0 -31 -7 -73 -14 -92 l-13 -35 -1 34 c-1 18 4 62 11 97 8 44 8 70 1
86 -7 15 -7 33 -1 51 7 19 7 32 -2 42 -9 10 -9 19 0 35 6 12 9 28 6 36 -3 8 0
24 7 35 10 17 9 22 -13 39 -14 10 -41 23 -60 28 -24 7 -28 10 -13 11 12 1 25
6 28 11 3 6 17 10 30 10 20 0 24 6 28 48 13 113 46 231 85 307 12 23 17 26 20
13 2 -9 -4 -30 -12 -47z m-237 -127 c8 -3 11 -12 8 -26 -4 -15 2 -33 19 -55
14 -19 24 -43 22 -55 -3 -23 -63 -71 -110 -89 -37 -14 -36 -42 2 -86 20 -23
30 -44 30 -67 0 -18 9 -44 19 -58 13 -15 21 -46 24 -88 3 -36 8 -78 12 -94 6
-21 5 -27 -4 -22 -6 4 -11 15 -11 24 0 9 -7 30 -15 46 -8 15 -15 43 -15 61 0
18 -7 38 -16 46 -8 7 -24 30 -35 51 -11 22 -26 41 -34 45 -10 3 -15 20 -15 48
0 29 -5 45 -15 49 -22 8 -35 -25 -35 -93 0 -33 -4 -63 -10 -66 -5 -3 -10 -22
-10 -42 0 -20 -2 -34 -5 -32 -10 11 -13 193 -3 214 8 18 6 29 -11 51 -19 28
-20 33 -8 139 12 107 13 109 22 66 6 -25 15 -46 22 -48 7 -3 26 18 43 46 31
51 32 51 73 45 23 -3 48 -8 56 -10z m-324 -67 c11 -12 27 -42 34 -65 13 -38
13 -46 -3 -80 -18 -36 -18 -37 10 -88 l28 -51 -44 -56 c-37 -48 -51 -58 -90
-66 -29 -6 -46 -6 -48 0 -5 14 -58 39 -82 39 -11 0 -20 3 -20 8 -5 100 -9 130
-19 147 -11 18 -10 27 8 60 11 22 21 46 21 53 0 8 26 40 58 73 52 55 60 59 92
55 19 -3 44 -16 55 -29z m855 -99 c17 -53 35 -98 42 -100 6 -2 13 -37 16 -81
2 -43 9 -80 13 -83 5 -3 9 -15 9 -26 0 -12 7 -29 15 -38 13 -14 14 -22 4 -44
-10 -21 -10 -29 0 -39 9 -9 19 -4 47 26 19 20 44 37 55 37 28 0 138 57 174 90
30 27 95 56 95 41 0 -13 -43 -48 -86 -69 -22 -11 -46 -27 -53 -36 -7 -8 -33
-27 -57 -41 -24 -14 -51 -39 -59 -55 -11 -21 -38 -41 -85 -65 -55 -28 -74 -43
-90 -74 -17 -35 -66 -81 -85 -81 -15 0 -65 -42 -65 -55 0 -8 -18 -38 -40 -67
-22 -29 -40 -57 -40 -62 0 -19 -141 -146 -168 -151 -15 -4 -36 -8 -48 -10 -11
-3 -33 -16 -50 -30 -87 -77 -118 -79 -36 -3 27 25 65 51 85 59 20 7 37 16 37
21 0 4 38 47 85 95 66 68 83 92 79 108 -4 11 -7 24 -8 29 0 5 20 25 46 45 34
25 44 39 37 47 -12 14 -8 17 46 34 48 15 55 24 55 70 0 19 7 46 15 60 20 34
20 119 0 126 -9 4 -15 19 -15 36 0 16 -6 41 -14 56 -17 34 -31 252 -16 252 5
0 10 24 10 53 0 67 11 52 50 -75z m-483 -114 c24 -7 37 -52 21 -71 -6 -7 -7
-30 -3 -53 4 -22 5 -40 2 -40 -12 0 -40 56 -42 87 -2 19 -11 45 -20 59 -14 22
-14 24 2 24 10 0 28 -3 40 -6z m30 -271 c-3 -10 -5 -2 -5 17 0 19 2 27 5 18 2
-10 2 -26 0 -35z"/>
<path d="M5401 4039 c-11 -5 -21 -15 -21 -24 0 -9 -7 -18 -15 -21 -29 -11 -28
-44 1 -75 15 -16 33 -29 40 -29 17 0 44 45 44 75 0 15 7 33 16 42 27 28 -16
49 -65 32z"/>
<path d="M5047 3962 c-10 -10 -17 -30 -17 -44 0 -14 -7 -31 -15 -38 -15 -13
-20 -74 -9 -104 3 -9 13 -16 20 -16 8 0 20 -11 26 -25 10 -22 17 -26 47 -23
29 2 37 8 39 26 2 13 -2 30 -8 38 -10 11 -10 21 0 44 10 25 10 34 -4 55 -9 14
-21 25 -27 25 -7 0 -8 14 -4 40 6 35 4 40 -13 40 -10 0 -26 -8 -35 -18z"/>
<path d="M1130 4553 c-8 -4 -35 -21 -59 -40 -37 -28 -52 -33 -96 -33 -39 0
-61 -6 -89 -25 -20 -14 -48 -28 -62 -31 -52 -13 -64 -97 -19 -144 25 -26 26
-31 15 -64 -15 -47 -5 -90 32 -131 29 -34 37 -76 37 -206 0 -20 9 -46 21 -61
11 -15 20 -38 20 -53 0 -14 7 -40 16 -57 13 -25 15 -46 10 -100 -6 -59 -5 -72
13 -93 16 -21 18 -31 10 -61 -11 -39 -8 -53 32 -142 16 -34 29 -80 29 -101 0
-23 8 -48 20 -64 11 -14 20 -36 20 -50 0 -39 10 -56 41 -72 37 -20 45 -19 69
5 12 12 20 33 20 55 0 20 7 47 16 60 12 18 14 36 9 62 -3 21 -6 58 -6 83 1 30
-7 57 -22 84 -22 35 -23 41 -11 77 10 27 11 46 4 64 -6 15 -7 37 -4 51 8 32
48 32 69 0 17 -26 49 -41 107 -51 30 -5 40 -13 55 -43 14 -29 26 -39 55 -46
26 -7 40 -17 48 -37 7 -15 25 -33 41 -40 17 -6 37 -25 45 -40 8 -16 32 -40 54
-54 29 -18 40 -32 40 -50 0 -13 13 -39 29 -57 15 -18 36 -47 45 -65 23 -46 51
-59 82 -38 22 14 24 22 24 89 0 66 -3 77 -30 111 -16 21 -30 43 -30 49 0 6 -3
21 -6 34 -5 16 -2 22 10 22 9 0 25 9 36 20 17 17 20 32 19 96 -1 41 2 78 5 82
4 3 16 1 26 -6 11 -7 29 -12 40 -12 14 0 20 -7 20 -23 0 -13 9 -32 20 -42 11
-10 20 -30 20 -44 0 -32 8 -44 39 -61 36 -19 66 3 92 66 18 47 25 54 49 54 15
0 38 9 52 19 13 11 38 19 54 19 76 -2 138 89 104 153 -12 22 -59 26 -90 7 -15
-10 -22 -9 -39 6 -11 10 -32 18 -48 18 -15 0 -42 2 -58 4 -29 4 -30 6 -30 51
0 27 -4 55 -8 63 -5 11 6 26 42 52 27 20 55 51 62 67 12 26 20 31 47 31 70 0
132 48 132 102 0 39 -36 60 -97 57 -26 -1 -58 3 -71 10 -47 25 -153 -14 -172
-64 -5 -14 -25 -31 -46 -40 -46 -19 -63 -41 -64 -82 0 -32 -28 -103 -40 -103
-4 0 -15 9 -25 20 -13 15 -16 28 -10 62 15 100 2 223 -26 241 -17 10 -17 13
-2 29 9 10 20 39 24 66 23 132 23 127 -5 157 -14 15 -26 33 -26 40 0 44 -89
60 -135 23 -25 -19 -27 -26 -22 -69 3 -27 2 -51 -2 -54 -17 -10 -21 -67 -7
-99 8 -19 33 -45 59 -63 47 -31 51 -43 12 -43 -31 0 -54 -30 -54 -70 0 -19 -3
-52 -7 -73 -4 -25 -2 -47 7 -63 11 -21 10 -30 -4 -59 -22 -46 -21 -63 3 -103
16 -26 20 -50 20 -123 0 -50 4 -98 9 -107 4 -9 11 -48 15 -85 l7 -68 -39 39
c-21 21 -44 52 -51 70 -8 18 -22 37 -33 43 -10 6 -32 32 -49 58 -18 31 -41 54
-62 62 -47 19 -114 66 -121 85 -9 22 8 40 44 48 23 4 34 15 46 43 9 21 25 55
35 75 10 20 19 51 19 69 0 18 8 41 18 52 11 12 17 37 18 71 1 28 5 63 9 78 5
20 1 38 -14 63 -13 22 -21 53 -21 81 0 52 -33 94 -74 94 -14 0 -36 11 -50 25
-16 16 -36 25 -55 25 -17 0 -59 16 -94 35 -62 34 -116 43 -157 28z m139 -85
c31 -17 72 -34 91 -37 26 -5 36 -12 38 -28 3 -18 11 -22 50 -25 l47 -3 5 -50
c3 -27 13 -62 23 -77 14 -20 16 -31 8 -45 -5 -11 -7 -38 -4 -60 4 -33 1 -47
-16 -69 -12 -15 -21 -41 -21 -60 0 -18 -4 -35 -9 -38 -4 -3 -14 -26 -21 -51
-13 -47 -33 -65 -70 -65 -13 0 -24 -10 -31 -27 -5 -15 -19 -33 -29 -40 -29
-20 -25 -42 9 -54 21 -7 33 -21 41 -45 9 -26 17 -34 35 -34 12 0 25 -7 29 -15
3 -9 18 -15 38 -15 29 0 37 -6 58 -45 13 -24 37 -54 52 -65 16 -11 32 -36 38
-59 7 -28 17 -41 34 -45 14 -3 29 -19 36 -37 8 -19 24 -35 41 -41 22 -8 29
-17 34 -51 4 -23 18 -54 31 -68 14 -14 27 -43 30 -65 l6 -39 -22 25 c-38 45
-53 70 -59 103 -5 24 -17 38 -47 54 -27 15 -45 34 -54 58 -10 25 -22 38 -42
43 -19 5 -37 21 -52 47 -18 33 -27 40 -52 39 -25 -1 -32 4 -46 37 -13 30 -22
39 -41 39 -14 0 -30 7 -38 16 -7 9 -22 14 -36 11 -18 -3 -30 4 -50 29 -19 26
-33 34 -56 34 -20 0 -41 10 -58 26 -23 22 -30 24 -48 15 -24 -13 -29 -59 -10
-90 9 -13 9 -23 1 -37 -8 -14 -6 -25 6 -46 15 -25 15 -30 -2 -64 -17 -37 -17
-38 8 -86 20 -39 24 -58 20 -92 -4 -27 -2 -46 5 -50 16 -10 13 -56 -4 -62 -10
-4 -15 -21 -16 -53 l-2 -46 -6 49 c-5 29 -14 52 -24 58 -13 7 -17 23 -17 63 0
29 -4 55 -8 57 -4 2 -21 29 -36 62 -26 53 -27 61 -16 95 10 32 10 43 -4 69 -9
17 -20 34 -26 37 -7 4 -6 13 1 27 13 24 5 136 -11 152 -6 6 -10 26 -10 46 0
25 -7 43 -21 56 -14 12 -19 27 -16 43 3 14 0 36 -5 50 -5 15 -10 52 -9 85 1
53 -2 62 -34 97 -39 43 -40 50 -23 113 11 43 11 45 -21 81 -30 35 -37 63 -12
58 6 -2 31 13 57 32 40 31 50 34 84 29 31 -5 48 -1 83 19 24 14 49 33 57 41
21 26 78 19 139 -16z m541 -54 c0 -28 4 -34 21 -34 19 0 21 -4 14 -32 -3 -18
-9 -50 -12 -70 -7 -46 -26 -49 -66 -13 -32 30 -32 38 -8 85 17 31 18 38 5 63
-14 26 -13 28 8 36 31 12 38 6 38 -35z m28 -324 c4 -49 3 -111 -3 -171 -6 -54
-5 -58 24 -88 32 -33 32 -36 -2 -82 -19 -26 -19 -29 -2 -78 16 -50 16 -52 -4
-87 -16 -27 -21 -52 -21 -105 0 -44 -4 -68 -10 -64 -5 3 -10 35 -10 71 0 36
-5 74 -10 85 -6 10 -12 67 -14 125 -3 83 -7 109 -22 125 -16 18 -17 21 -1 55
22 45 22 100 1 112 -13 7 -14 13 -5 30 6 11 11 32 11 45 0 23 32 55 55 56 6 1
11 -12 13 -29z m398 -11 c4 -7 28 -9 65 -6 45 4 59 2 59 -9 0 -20 -34 -34 -84
-34 -68 0 -99 -15 -94 -45 6 -29 -1 -38 -64 -89 -58 -45 -69 -78 -39 -109 l20
-23 -25 -49 c-33 -65 -29 -89 14 -93 18 -2 40 2 49 9 19 16 101 18 114 3 15
-18 55 -25 83 -14 20 7 26 6 26 -4 0 -23 -29 -39 -68 -38 -24 1 -43 -5 -59
-19 -15 -15 -29 -20 -46 -15 -30 7 -58 -21 -82 -81 -20 -50 -35 -56 -35 -14 0
16 -6 36 -13 43 -8 7 -16 31 -20 52 -7 46 -21 57 -59 49 -34 -7 -35 4 -9 56
24 46 14 74 -19 53 -29 -18 -25 2 10 41 19 22 30 46 30 65 0 16 7 43 15 58 8
16 15 43 15 60 0 36 18 55 69 69 28 8 37 17 41 39 8 42 87 76 106 45z"/>
<path d="M1110 4305 c-16 -18 -32 -24 -58 -23 -23 1 -39 -5 -48 -17 -16 -22
-18 -61 -4 -70 6 -3 10 -23 10 -44 0 -23 8 -48 20 -64 11 -14 20 -39 20 -56 0
-19 6 -34 15 -37 9 -4 15 -19 15 -39 0 -18 7 -38 14 -45 11 -8 12 -18 6 -36
-17 -42 9 -71 38 -42 9 9 15 9 24 0 19 -19 42 -14 67 12 13 14 38 26 63 29 47
6 58 19 58 66 0 21 9 44 25 63 22 26 25 38 22 93 -2 45 -8 69 -21 84 -10 11
-20 35 -22 52 -5 44 -22 62 -52 54 -18 -4 -28 0 -43 20 -17 21 -29 25 -73 25
-43 0 -57 -5 -76 -25z m122 -60 c11 -14 28 -25 38 -25 21 0 60 -72 60 -113 0
-14 5 -29 10 -32 6 -4 0 -20 -15 -40 -14 -18 -29 -49 -32 -69 -5 -31 -10 -36
-39 -42 -18 -3 -38 -12 -45 -20 -30 -36 -47 -11 -93 130 -15 44 -30 84 -35 90
-5 6 -11 32 -13 59 -5 46 -5 47 22 47 15 0 35 9 45 20 26 28 72 26 97 -5z"/>
<path d="M1160 4240 c0 -5 -13 -16 -30 -25 -24 -12 -30 -22 -30 -48 0 -17 7
-41 15 -51 8 -11 15 -31 15 -45 0 -14 7 -35 15 -45 8 -11 15 -29 15 -40 0 -12
7 -29 15 -40 13 -17 17 -17 52 -3 30 12 40 22 46 50 5 19 17 43 27 52 19 17
18 20 -13 108 -6 16 -27 40 -49 53 -21 13 -38 29 -38 34 0 6 -9 10 -20 10 -11
0 -20 -4 -20 -10z"/>
<path d="M2565 4451 c-3 -6 -16 -11 -28 -11 -13 0 -33 -7 -45 -16 -20 -14 -22
-23 -22 -126 0 -86 -5 -127 -24 -192 -61 -208 -67 -255 -37 -285 12 -12 30
-21 42 -21 16 0 19 -4 14 -17 -25 -62 -27 -75 -16 -102 10 -22 8 -45 -10 -122
-47 -206 -45 -186 -22 -216 25 -35 67 -51 91 -37 23 15 89 185 97 251 7 54 13
60 44 43 21 -11 51 -79 51 -115 0 -14 15 -41 35 -64 19 -21 35 -48 35 -59 0
-11 15 -43 34 -70 18 -28 36 -63 39 -79 4 -15 9 -42 13 -60 7 -35 27 -57 62
-68 18 -5 31 1 62 34 49 50 49 61 10 206 -17 61 -30 124 -30 141 0 17 -12 48
-26 69 -14 21 -28 56 -30 78 -7 53 -8 54 -62 80 -34 16 -57 38 -89 85 -24 35
-43 69 -43 76 0 8 19 18 43 24 52 14 80 42 100 102 12 35 24 50 58 71 24 14
54 41 67 60 13 19 29 37 36 41 7 4 25 25 40 47 33 47 30 85 -8 102 -33 16 -76
-6 -178 -89 -49 -40 -97 -72 -108 -72 -10 0 -35 -13 -53 -30 -19 -16 -36 -30
-38 -30 -2 0 -5 21 -5 48 -1 26 -3 72 -4 102 -1 30 1 82 4 115 9 79 -6 109
-56 113 -20 2 -39 -2 -43 -7z m45 -95 c0 -25 -5 -48 -11 -51 -12 -8 -2 -129
13 -157 6 -12 4 -28 -7 -47 -24 -47 -18 -121 10 -121 6 0 20 9 30 20 10 11 23
20 30 20 7 0 31 14 53 30 23 17 48 30 55 30 8 0 58 36 113 80 95 77 132 99
103 63 -8 -10 -24 -26 -36 -36 -13 -10 -23 -24 -23 -31 0 -17 -39 -50 -77 -65
-30 -12 -63 -60 -63 -93 0 -27 -29 -55 -72 -67 -105 -31 -103 -77 11 -233 24
-34 42 -48 66 -52 35 -7 45 -21 45 -62 0 -13 12 -42 26 -63 14 -22 29 -64 34
-97 5 -33 18 -92 29 -131 24 -85 26 -104 8 -78 -19 25 -31 4 -23 -41 4 -19 5
-34 3 -34 -7 0 -37 96 -37 118 0 11 -13 35 -30 53 -16 19 -32 50 -35 70 -4 22
-20 51 -41 73 -23 25 -34 46 -34 66 0 32 -32 104 -50 115 -6 4 -15 18 -20 31
-12 31 -39 42 -54 22 -7 -9 -23 -18 -36 -20 -22 -3 -26 -10 -37 -77 -12 -75
-59 -217 -74 -227 -17 -10 -20 45 -5 97 33 117 46 207 35 232 -8 19 -8 31 4
54 9 16 17 60 19 98 3 59 1 70 -14 73 -10 2 -29 -9 -43 -25 l-26 -28 5 30 c9
55 36 169 57 235 15 48 19 89 18 154 l-2 89 29 13 c48 21 54 18 54 -30z"/>
<path d="M2314 3953 c-31 -3 -44 -10 -52 -27 -6 -13 -31 -41 -56 -62 -36 -30
-43 -41 -35 -55 5 -10 9 -31 9 -48 0 -30 2 -31 43 -31 23 0 52 -7 65 -15 17
-13 26 -13 43 -5 12 7 36 9 55 5 24 -4 34 -2 34 7 0 7 3 22 6 33 4 15 -2 25
-20 35 -27 14 -51 76 -42 108 2 9 7 27 11 40 4 15 2 21 -7 20 -7 -1 -32 -3
-54 -5z"/>
<path d="M3797 4129 c-24 -14 -57 -85 -57 -125 0 -18 -9 -42 -20 -55 l-19 -24
-1 33 c0 25 -6 35 -25 44 -41 19 -76 0 -94 -49 -8 -24 -18 -43 -21 -43 -3 0
-12 16 -19 36 -19 52 -61 63 -103 26 -17 -14 -18 -12 -18 21 0 52 -16 86 -44
93 -34 8 -65 -12 -82 -53 -8 -19 -25 -45 -38 -56 -31 -29 -54 -99 -54 -168 0
-36 -8 -69 -22 -96 -19 -37 -19 -45 -8 -89 16 -65 34 -86 72 -82 33 3 63 43
76 101 6 28 8 29 14 12 13 -38 44 -89 58 -99 22 -13 66 1 73 24 3 11 14 20 24
20 10 0 26 9 36 20 17 19 18 19 34 -1 9 -12 30 -22 46 -23 17 -2 47 -8 68 -15
22 -7 51 -11 67 -8 20 4 33 1 45 -13 24 -27 67 -25 93 3 26 27 28 54 8 102
-26 61 -31 169 -11 222 15 38 16 52 6 78 -8 23 -8 41 -1 59 15 41 12 74 -10
96 -22 22 -46 25 -73 9z m23 -99 c-8 -14 -8 -31 0 -60 7 -28 8 -46 0 -59 -17
-32 -12 -200 7 -253 9 -26 13 -51 9 -55 -10 -10 -36 25 -36 48 0 27 -23 28
-43 2 -38 -48 -98 -21 -99 43 0 52 12 74 62 114 26 21 40 40 40 55 0 12 9 42
20 66 11 24 20 56 20 71 0 35 24 89 28 65 2 -9 -2 -25 -8 -37z m-425 -220 c22
-66 32 -180 16 -180 -6 0 -13 12 -17 28 -15 69 -47 122 -74 122 -12 0 -44 -53
-43 -72 1 -10 -2 -20 -8 -23 -5 -4 -9 -17 -9 -30 0 -32 -16 -40 -30 -15 -9 17
-8 29 5 56 31 65 42 109 35 135 -11 37 10 98 34 101 12 2 23 15 29 33 18 60
20 59 32 -20 7 -44 21 -105 30 -135z m247 72 c-11 -29 -27 -149 -25 -194 1
-40 -11 -35 -33 14 -18 41 -74 108 -89 108 -4 0 -5 -29 -1 -64 8 -77 -6 -94
-24 -30 -10 34 -10 50 -2 67 7 12 13 51 15 87 3 58 4 61 11 32 5 -20 18 -38
32 -44 13 -6 26 -19 29 -30 8 -24 45 -24 45 1 0 10 10 43 23 72 18 43 23 49
25 31 2 -13 -1 -36 -6 -50z"/>
<path d="M3722 3770 c-26 -28 -33 -67 -15 -86 28 -28 81 32 71 83 -5 26 -33
27 -56 3z"/>
<path d="M3323 3918 c-10 -12 -35 -90 -30 -94 1 -1 18 -4 37 -6 30 -3 35 0 33
17 -8 78 -22 106 -40 83z"/>
</g>
</svg>
